<mxfile host="app.diagrams.net" agent="Mozilla/5.0 (Windows NT 10.0; Win64; x64) AppleWebKit/537.36 (KHTML, like Gecko) Chrome/136.0.0.0 Safari/537.36 Edg/136.0.0.0" version="27.0.9">
  <diagram name="第 1 页" id="EqTl37dE7QtsOx3BvS3f">
    <mxGraphModel dx="993" dy="535" grid="1" gridSize="10" guides="1" tooltips="1" connect="1" arrows="1" fold="1" page="1" pageScale="1" pageWidth="827" pageHeight="1169" math="0" shadow="0">
      <root>
        <mxCell id="0" />
        <mxCell id="1" parent="0" />
        <mxCell id="xNIpCAJweIpBo5fTiovh-9" value="埋点测试" style="shape=umlActor;verticalLabelPosition=bottom;verticalAlign=top;html=1;outlineConnect=0;" vertex="1" parent="1">
          <mxGeometry x="90" y="420" width="30" height="60" as="geometry" />
        </mxCell>
        <mxCell id="xNIpCAJweIpBo5fTiovh-10" value="" style="rounded=0;whiteSpace=wrap;html=1;" vertex="1" parent="1">
          <mxGeometry x="200" y="100" width="400" height="310" as="geometry" />
        </mxCell>
        <mxCell id="xNIpCAJweIpBo5fTiovh-11" value="" style="rounded=0;whiteSpace=wrap;html=1;" vertex="1" parent="1">
          <mxGeometry x="200" y="470" width="430" height="260" as="geometry" />
        </mxCell>
        <mxCell id="xNIpCAJweIpBo5fTiovh-13" value="车端" style="text;html=1;align=center;verticalAlign=middle;whiteSpace=wrap;rounded=0;fontSize=25;fontStyle=0" vertex="1" parent="1">
          <mxGeometry x="200" y="100" width="60" height="30" as="geometry" />
        </mxCell>
        <mxCell id="xNIpCAJweIpBo5fTiovh-14" value="&lt;font style=&quot;font-size: 25px;&quot;&gt;云端&lt;/font&gt;" style="text;html=1;align=center;verticalAlign=middle;whiteSpace=wrap;rounded=0;" vertex="1" parent="1">
          <mxGeometry x="200" y="470" width="60" height="30" as="geometry" />
        </mxCell>
        <mxCell id="xNIpCAJweIpBo5fTiovh-22" style="edgeStyle=orthogonalEdgeStyle;rounded=0;orthogonalLoop=1;jettySize=auto;html=1;exitX=1;exitY=0.5;exitDx=0;exitDy=0;entryX=0;entryY=0.5;entryDx=0;entryDy=0;" edge="1" parent="1" source="xNIpCAJweIpBo5fTiovh-15" target="xNIpCAJweIpBo5fTiovh-21">
          <mxGeometry relative="1" as="geometry" />
        </mxCell>
        <mxCell id="xNIpCAJweIpBo5fTiovh-15" value="" style="rounded=1;whiteSpace=wrap;html=1;" vertex="1" parent="1">
          <mxGeometry x="220" y="140" width="120" height="260" as="geometry" />
        </mxCell>
        <mxCell id="xNIpCAJweIpBo5fTiovh-16" style="edgeStyle=orthogonalEdgeStyle;rounded=0;orthogonalLoop=1;jettySize=auto;html=1;entryX=0;entryY=0.5;entryDx=0;entryDy=0;" edge="1" parent="1" source="xNIpCAJweIpBo5fTiovh-9" target="xNIpCAJweIpBo5fTiovh-15">
          <mxGeometry relative="1" as="geometry" />
        </mxCell>
        <mxCell id="xNIpCAJweIpBo5fTiovh-17" value="Action_1" style="shape=process;whiteSpace=wrap;html=1;backgroundOutline=1;" vertex="1" parent="1">
          <mxGeometry x="235" y="150" width="90" height="60" as="geometry" />
        </mxCell>
        <mxCell id="xNIpCAJweIpBo5fTiovh-18" value="Action_2" style="shape=process;whiteSpace=wrap;html=1;backgroundOutline=1;" vertex="1" parent="1">
          <mxGeometry x="235" y="230" width="90" height="60" as="geometry" />
        </mxCell>
        <mxCell id="xNIpCAJweIpBo5fTiovh-19" value="Action_3" style="shape=process;whiteSpace=wrap;html=1;backgroundOutline=1;" vertex="1" parent="1">
          <mxGeometry x="235" y="330" width="90" height="60" as="geometry" />
        </mxCell>
        <mxCell id="xNIpCAJweIpBo5fTiovh-20" value="..." style="text;html=1;align=center;verticalAlign=middle;whiteSpace=wrap;rounded=0;rotation=90;fontSize=25;" vertex="1" parent="1">
          <mxGeometry x="260" y="300" width="60" height="30" as="geometry" />
        </mxCell>
        <mxCell id="xNIpCAJweIpBo5fTiovh-25" style="edgeStyle=orthogonalEdgeStyle;rounded=0;orthogonalLoop=1;jettySize=auto;html=1;exitX=0.5;exitY=1;exitDx=0;exitDy=0;entryX=0.5;entryY=0;entryDx=0;entryDy=0;" edge="1" parent="1" source="xNIpCAJweIpBo5fTiovh-21" target="xNIpCAJweIpBo5fTiovh-24">
          <mxGeometry relative="1" as="geometry" />
        </mxCell>
        <mxCell id="xNIpCAJweIpBo5fTiovh-21" value="车端SDK" style="rounded=1;whiteSpace=wrap;html=1;" vertex="1" parent="1">
          <mxGeometry x="460" y="140" width="120" height="260" as="geometry" />
        </mxCell>
        <mxCell id="xNIpCAJweIpBo5fTiovh-27" style="edgeStyle=orthogonalEdgeStyle;rounded=0;orthogonalLoop=1;jettySize=auto;html=1;exitX=0.5;exitY=1;exitDx=0;exitDy=0;" edge="1" parent="1" source="xNIpCAJweIpBo5fTiovh-24" target="xNIpCAJweIpBo5fTiovh-26">
          <mxGeometry relative="1" as="geometry" />
        </mxCell>
        <mxCell id="xNIpCAJweIpBo5fTiovh-24" value="Openresty" style="rounded=1;whiteSpace=wrap;html=1;" vertex="1" parent="1">
          <mxGeometry x="210" y="510" width="120" height="60" as="geometry" />
        </mxCell>
        <mxCell id="xNIpCAJweIpBo5fTiovh-26" value="日志" style="rounded=1;whiteSpace=wrap;html=1;" vertex="1" parent="1">
          <mxGeometry x="210" y="585" width="120" height="60" as="geometry" />
        </mxCell>
        <mxCell id="xNIpCAJweIpBo5fTiovh-29" style="edgeStyle=orthogonalEdgeStyle;rounded=0;orthogonalLoop=1;jettySize=auto;html=1;exitX=0.5;exitY=0;exitDx=0;exitDy=0;entryX=0.5;entryY=1;entryDx=0;entryDy=0;" edge="1" parent="1" source="xNIpCAJweIpBo5fTiovh-28" target="xNIpCAJweIpBo5fTiovh-26">
          <mxGeometry relative="1" as="geometry" />
        </mxCell>
        <mxCell id="xNIpCAJweIpBo5fTiovh-31" style="edgeStyle=orthogonalEdgeStyle;rounded=0;orthogonalLoop=1;jettySize=auto;html=1;exitX=1;exitY=0.5;exitDx=0;exitDy=0;entryX=0;entryY=0.5;entryDx=0;entryDy=0;" edge="1" parent="1" source="xNIpCAJweIpBo5fTiovh-28" target="xNIpCAJweIpBo5fTiovh-30">
          <mxGeometry relative="1" as="geometry" />
        </mxCell>
        <mxCell id="xNIpCAJweIpBo5fTiovh-28" value="filebeat" style="rounded=1;whiteSpace=wrap;html=1;" vertex="1" parent="1">
          <mxGeometry x="210" y="660" width="120" height="60" as="geometry" />
        </mxCell>
        <mxCell id="xNIpCAJweIpBo5fTiovh-33" style="edgeStyle=orthogonalEdgeStyle;rounded=0;orthogonalLoop=1;jettySize=auto;html=1;exitX=0.5;exitY=0;exitDx=0;exitDy=0;entryX=0.5;entryY=1;entryDx=0;entryDy=0;" edge="1" parent="1" source="xNIpCAJweIpBo5fTiovh-30" target="xNIpCAJweIpBo5fTiovh-32">
          <mxGeometry relative="1" as="geometry" />
        </mxCell>
        <mxCell id="xNIpCAJweIpBo5fTiovh-30" value="kafka" style="rounded=1;whiteSpace=wrap;html=1;" vertex="1" parent="1">
          <mxGeometry x="355" y="660" width="120" height="60" as="geometry" />
        </mxCell>
        <mxCell id="xNIpCAJweIpBo5fTiovh-35" style="edgeStyle=orthogonalEdgeStyle;rounded=0;orthogonalLoop=1;jettySize=auto;html=1;exitX=0.5;exitY=0;exitDx=0;exitDy=0;entryX=0.5;entryY=1;entryDx=0;entryDy=0;" edge="1" parent="1" source="xNIpCAJweIpBo5fTiovh-32" target="xNIpCAJweIpBo5fTiovh-34">
          <mxGeometry relative="1" as="geometry" />
        </mxCell>
        <mxCell id="xNIpCAJweIpBo5fTiovh-32" value="Flink" style="rounded=1;whiteSpace=wrap;html=1;" vertex="1" parent="1">
          <mxGeometry x="355" y="585" width="120" height="60" as="geometry" />
        </mxCell>
        <mxCell id="xNIpCAJweIpBo5fTiovh-34" value="ES" style="rounded=1;whiteSpace=wrap;html=1;" vertex="1" parent="1">
          <mxGeometry x="354" y="510" width="120" height="60" as="geometry" />
        </mxCell>
        <mxCell id="xNIpCAJweIpBo5fTiovh-36" value="数据采集中心" style="rounded=1;whiteSpace=wrap;html=1;" vertex="1" parent="1">
          <mxGeometry x="500" y="510" width="120" height="210" as="geometry" />
        </mxCell>
        <mxCell id="xNIpCAJweIpBo5fTiovh-37" value="" style="rounded=0;whiteSpace=wrap;html=1;" vertex="1" parent="1">
          <mxGeometry x="200" y="780" width="430" height="250" as="geometry" />
        </mxCell>
        <mxCell id="xNIpCAJweIpBo5fTiovh-38" value="ODEON" style="text;html=1;align=center;verticalAlign=middle;whiteSpace=wrap;rounded=0;fontSize=25;" vertex="1" parent="1">
          <mxGeometry x="220" y="780" width="60" height="30" as="geometry" />
        </mxCell>
      </root>
    </mxGraphModel>
  </diagram>
</mxfile>
